<svg width="40" height="40" viewBox="0 0 40 40" fill="none" xmlns="http://www.w3.org/2000/svg">
<g clip-path="url(#clip0_107_94)">
<path d="M5.62272 39.9713L9.62682 17.549C12.8055 22.4649 17.6925 26.0291 23.3446 27.5535L25 28L5.62272 39.9713Z" fill="#FFA848"/>
<path d="M23.5 22.5C27.576 25.3448 25.5 27 25.5 27C24.7098 28.1322 20.4562 27.0958 16.3802 24.251C12.3042 21.4063 9.64056 18.1823 10.4308 17.0501C11.221 15.9178 13.424 14.6552 17.5 17.5" stroke="black"/>
<circle cx="18" cy="13" r="1" fill="black"/>
<circle cx="31" cy="9" r="1" fill="black"/>
<circle cx="22" cy="7" r="1" fill="black"/>
<circle cx="28" cy="19" r="1" fill="black"/>
<rect x="30.9003" y="15.2237" width="2.64694" height="2.64694" transform="rotate(-30 30.9003 15.2237)" fill="black"/>
<path d="M14.0296 3.98395L15.637 6.14794L18.1404 6.32883L16.221 7.94611L16.1919 10.6416L14.5845 8.47763L12.0811 8.29673L14.0005 6.67945L14.0296 3.98395Z" fill="#FFA848"/>
<path d="M27.0126 9.59776C26.7485 8.74052 26.7537 8.75757 27.0126 9.59776ZM27.0126 9.59776C27.1492 10.0409 27.2146 10.5414 27.2599 11.01C27.3464 11.9035 27.2776 12.4889 27.1352 12.8686C26.9108 13.4673 26.595 13.8474 26.4357 14.0309C25.881 14.6695 25.2298 14.9208 24.2476 15.1439C22.7516 15.4837 22.2021 15.056 21.8947 14.854C21.5883 14.6526 21.5068 14.1775 21.5002 13.5672C21.496 13.171 21.868 12.7987 22.2187 12.3998C22.3506 12.2497 22.4904 12.1745 22.6106 12.1165C22.7389 12.0545 23.001 12.064 23.3049 12.0772C23.6738 12.0931 23.9112 12.4891 24.5582 13.2072C25.1112 13.8209 25.2036 14.6718 25.2438 15.5757C25.2617 15.9788 24.9379 16.6394 24.2383 17.8044C23.8368 18.473 23.3791 18.8262 23.0791 19.0434C22.6391 19.362 22.0082 19.6046 21.3709 19.8373C21.055 19.9443 20.754 20.0288 20.5258 20.078C20.2975 20.1271 20.151 20.1384 20 20.15" stroke="black" stroke-linejoin="round"/>
<path d="M10.2773 26.584C11.7419 28.1759 13.5327 29.433 15.5275 30.2695L16.2773 30.584" stroke="black"/>
</g>
<defs>
<clipPath id="clip0_107_94">
<rect width="40" height="40" fill="white"/>
</clipPath>
</defs>
</svg>
