<svg width="40" height="40" viewBox="0 0 40 40" fill="none" xmlns="http://www.w3.org/2000/svg">
<g clip-path="url(#clip0_99_197)">
<path d="M19.0136 8.70905C21.0671 6.10832 24.8401 5.66468 27.4409 7.71817L35.4038 14.0056C38.0046 16.0591 38.4482 19.8321 36.3947 22.4328L30.8174 29.4964L13.4364 15.7726L19.0136 8.70905Z" fill="#9ACDE8"/>
<path d="M13.4364 15.7726L16.2174 17.9684L9.87892 25.9961C9.27257 26.764 8.15848 26.895 7.39054 26.2887V26.2887C6.6226 25.6823 6.4916 24.5682 7.09795 23.8003L13.4364 15.7726Z" fill="#9ACDE8"/>
<path d="M18.3031 19.6153L21.0841 21.8111L14.7456 29.8387C14.1393 30.6066 13.0252 30.7376 12.2572 30.1313V30.1313C11.4893 29.5249 11.3583 28.4108 11.9647 27.6429L18.3031 19.6153Z" fill="#9ACDE8"/>
<path d="M23.1697 23.4579L25.9506 25.6537L19.6122 33.6814C19.0058 34.4493 17.8918 34.5803 17.1238 33.974V33.974C16.3559 33.3676 16.2249 32.2535 16.8312 31.4856L23.1697 23.4579Z" fill="#9ACDE8"/>
<path d="M28.0365 27.3006L30.8175 29.4964L24.479 37.524C23.8727 38.2919 22.7586 38.4229 21.9906 37.8166V37.8166C21.2227 37.2102 21.0917 36.0961 21.6981 35.3282L28.0365 27.3006Z" fill="#9ACDE8"/>
<path d="M17 12L25.2935 18.4669C26.3813 19.3151 27.9499 19.1258 28.8047 18.0432C29.6628 16.9564 29.4779 15.3799 28.3917 14.5211L17.4389 5.86176C16.1386 4.83373 14.251 5.05507 13.2238 6.35602L4.85913 16.9499C3.83238 18.2503 4.0542 20.1368 5.35457 21.1635L6.92425 22.4029" stroke="black"/>
</g>
<defs>
<clipPath id="clip0_99_197">
<rect width="40" height="40" fill="white"/>
</clipPath>
</defs>
</svg>
