<svg width="45" height="44" viewBox="0 0 45 44" fill="none" xmlns="http://www.w3.org/2000/svg">
<path d="M6.01082 11.2907L42.0411 27.3653L38.7352 31.9612L2.70489 15.8867L6.01082 11.2907Z" fill="black"/>
<path d="M38.621 11.2907L2.59073 27.3653L5.89665 31.9612L41.9269 15.8867L38.621 11.2907Z" fill="black"/>
<path d="M12.3933 4.5105L27.2026 41.079L31.911 37.9353L17.1016 1.36673L12.3933 4.5105Z" fill="black"/>
<path d="M32.1906 4.7405L17.3812 41.309L12.6729 38.1653L27.4822 1.59673L32.1906 4.7405Z" fill="black"/>
<rect x="20.4" y="19.43" width="4" height="4" fill="#F4EFE7"/>
<path d="M20.4 19.43L22.4 14.43L24.4 19.43H20.4Z" fill="#F4EFE7"/>
<path d="M20.4 23.43L15.4 21.43L20.4 19.43V23.43Z" fill="#F4EFE7"/>
<path d="M24.4 23.43L22.4 28.43L20.4 23.43H24.4Z" fill="#F4EFE7"/>
<path d="M24.4 19.43L29.4 21.43L24.4 23.43V19.43Z" fill="#F4EFE7"/>
</svg>
